<svg xmlns="http://www.w3.org/2000/svg" viewBox="0 0 14.92 14.92"><defs><style>.cls-1{fill:#6c6366;}</style></defs><title>cel</title><g id="Capa_2" data-name="Capa 2"><g id="Capa_2-2" data-name="Capa 2"><path class="cls-1" d="M2.85,0l.36.14A2,2,0,0,1,4.45,1.43c.19.64.37,1.29.53,1.94a1.81,1.81,0,0,1-.47,1.74,2.48,2.48,0,0,1-.35.35A.57.57,0,0,0,4,6.22,7.57,7.57,0,0,0,8.86,11a.42.42,0,0,0,.51-.13,2.29,2.29,0,0,1,1.4-.93,2.32,2.32,0,0,1,.75,0c.65.15,1.3.33,1.95.52a2,2,0,0,1,1.35,1.34c0,.09.07.18.11.27v.53a3.89,3.89,0,0,1-2.19,2.32h-.86c-.53-.07-1.07-.12-1.6-.21a12.51,12.51,0,0,1-10-9.8C.15,4.32.09,3.71,0,3.12V2.19A3.92,3.92,0,0,1,2.32,0Z"/><path class="cls-1" d="M12.73,14.92a3.89,3.89,0,0,0,2.19-2.32v2.32Z"/></g></g></svg>