<svg xmlns="http://www.w3.org/2000/svg" viewBox="0 0 17.26 17.27"><defs><style>.cls-1{fill:#6c6366;fill-rule:evenodd;}</style></defs><title>ws</title><g id="Capa_2" data-name="Capa 2"><g id="Capa_2-2" data-name="Capa 2"><path class="cls-1" d="M0,17.27l.61-1.8c.28-.83.57-1.67.84-2.51a.49.49,0,0,0,0-.35A8.47,8.47,0,1,1,17.15,7,8.47,8.47,0,0,1,4.88,15.89a.51.51,0,0,0-.43,0L.26,17.19Zm2.12-2.07.35-.1c.73-.23,1.46-.47,2.2-.7a.49.49,0,0,1,.35,0A7.14,7.14,0,0,0,15.8,7.11,7.14,7.14,0,0,0,7.53,1.45a7.06,7.06,0,0,0-4.67,10.9.48.48,0,0,1,.06.49C2.65,13.6,2.4,14.37,2.12,15.19Z"/><path class="cls-1" d="M4.64,6.47A2.4,2.4,0,0,1,5.26,5a1.31,1.31,0,0,1,1.16-.39.48.48,0,0,1,.31.26c.26.56.5,1.13.72,1.71a.44.44,0,0,1,0,.34,4,4,0,0,1-.47.63A.38.38,0,0,0,6.88,8a5.7,5.7,0,0,0,2.84,2.4.33.33,0,0,0,.43-.1c.2-.25.42-.49.61-.75a.34.34,0,0,1,.46-.14c.58.27,1.17.54,1.73.83a.44.44,0,0,1,.14.34,1.78,1.78,0,0,1-1.47,1.69,2.87,2.87,0,0,1-1.37-.08A8,8,0,0,1,5.6,8.84,4.86,4.86,0,0,1,4.71,7C4.67,6.85,4.66,6.66,4.64,6.47Z"/></g></g></svg>